<svg width="2176" height="2184" viewBox="0 0 2176 2184" fill="none" xmlns="http://www.w3.org/2000/svg">
<rect width="2176" height="2184" fill="#1E1E1E"/>
<circle cx="1086.5" cy="1091.5" r="921.5" fill="#96FAFF"/>
<g filter="url(#filter0_i_0_1)">
<path d="M1643.01 1095.01C1643.01 1582.95 1573.95 1978.51 1086.01 1978.51C598.063 1978.51 550.507 1582.95 550.507 1095.01C550.507 607.064 598.063 211.507 1086.01 211.507C1573.95 211.507 1643.01 607.064 1643.01 1095.01ZM374.037 1095.01C374.037 1488.22 692.797 1806.98 1086.01 1806.98C1479.22 1806.98 1797.98 1488.22 1797.98 1095.01C1797.98 701.797 1479.22 383.037 1086.01 383.037C692.797 383.037 374.037 701.797 374.037 1095.01Z" fill="url(#paint0_radial_0_1)"/>
</g>
<path d="M1593.15 1595.43C1580.84 1639.91 1565.67 1681.45 1547.04 1719.52C1507.94 1799.39 1453.63 1864 1378.63 1908.65C1303.64 1953.3 1207.93 1978.01 1086.01 1978.01C964.088 1978.01 869.723 1953.3 796.745 1908.65C723.77 1864 672.141 1799.4 635.733 1719.53C620.873 1686.93 608.549 1651.79 598.346 1614.43C725.807 1734.14 897.342 1807.48 1086.01 1807.48C1284.46 1807.48 1463.96 1726.34 1593.15 1595.43ZM596.454 578.744C557.418 724.023 550.007 902.35 550.007 1095.01C550.007 1287.66 557.418 1465.99 596.454 1611.27C459.775 1481.62 374.537 1298.27 374.537 1095.01C374.537 891.747 459.775 708.395 596.454 578.744ZM1595.13 598.031C1720.33 726.27 1797.48 901.629 1797.48 1095.01C1797.48 1288.39 1720.33 1463.74 1595.13 1591.98C1633.66 1450.34 1643.51 1279.23 1643.51 1095.01C1643.51 910.788 1633.66 739.677 1595.13 598.031ZM1086.01 212.007C1207.93 212.007 1303.64 236.715 1378.63 281.367C1453.63 326.016 1507.94 390.629 1547.04 470.498C1565.67 508.568 1580.84 550.101 1593.15 594.586C1463.96 463.675 1284.46 382.537 1086.01 382.537C897.342 382.538 725.807 455.869 598.346 575.583C608.549 538.225 620.873 503.086 635.733 470.486C672.141 390.617 723.77 326.01 796.745 281.364C869.723 236.716 964.088 212.007 1086.01 212.007Z" stroke="url(#paint1_linear_0_1)"/>
<g filter="url(#filter1_i_0_1)">
<path d="M2176 1092C2176 1695.1 1688.89 2184 1088 2184C487.114 2184 0 1695.1 0 1092C0 488.905 487.114 0 1088 0C1688.89 0 2176 488.905 2176 1092ZM211.233 1092C211.233 1578.01 603.775 1971.99 1088 1971.99C1572.22 1971.99 1964.77 1578.01 1964.77 1092C1964.77 605.995 1572.22 212.01 1088 212.01C603.775 212.01 211.233 605.995 211.233 1092Z" fill="url(#paint2_radial_0_1)"/>
</g>
<path d="M1088 0.5C1688.61 0.5 2175.5 489.179 2175.5 1092C2175.5 1694.82 1688.61 2183.5 1088 2183.5C487.392 2183.5 0.5 1694.82 0.5 1092C0.5 489.179 487.392 0.5 1088 0.5ZM1088 211.51C603.497 211.51 210.733 605.72 210.733 1092C210.733 1578.28 603.497 1972.49 1088 1972.49C1572.5 1972.49 1965.27 1578.28 1965.27 1092C1965.27 605.72 1572.5 211.51 1088 211.51Z" stroke="url(#paint3_linear_0_1)"/>
<g filter="url(#filter2_i_0_1)">
<path d="M1651 1091.5C1651 1403.26 1399.16 1656 1088.5 1656C777.84 1656 526 1403.26 526 1091.5C526 779.735 777.84 527 1088.5 527C1399.16 527 1651 779.735 1651 1091.5ZM635.208 1091.5C635.208 1342.74 838.154 1546.4 1088.5 1546.4C1338.85 1546.4 1541.79 1342.74 1541.79 1091.5C1541.79 840.264 1338.85 636.597 1088.5 636.597C838.154 636.597 635.208 840.264 635.208 1091.5Z" fill="url(#paint4_radial_0_1)"/>
</g>
<path d="M1088.5 527.5C1398.88 527.5 1650.5 780.01 1650.5 1091.5C1650.5 1402.99 1398.88 1655.5 1088.5 1655.5C778.118 1655.5 526.5 1402.99 526.5 1091.5C526.5 780.01 778.118 527.5 1088.5 527.5ZM1088.5 636.097C837.876 636.097 634.708 839.989 634.708 1091.5C634.708 1343.01 837.876 1546.9 1088.5 1546.9C1339.12 1546.9 1542.29 1343.01 1542.29 1091.5C1542.29 839.989 1339.12 636.097 1088.5 636.097Z" stroke="url(#paint5_linear_0_1)"/>
<g filter="url(#filter3_i_0_1)">
<path d="M1458 1091.5C1458 1296.67 1292.57 1463 1088.5 1463C884.431 1463 719 1296.67 719 1091.5C719 886.326 884.431 720 1088.5 720C1292.57 720 1458 886.326 1458 1091.5ZM790.738 1091.5C790.738 1256.84 924.05 1390.87 1088.5 1390.87C1252.95 1390.87 1386.26 1256.84 1386.26 1091.5C1386.26 926.16 1252.95 792.126 1088.5 792.126C924.05 792.126 790.738 926.16 790.738 1091.5Z" fill="url(#paint6_radial_0_1)"/>
</g>
<path d="M1088.5 720.5C1292.29 720.5 1457.5 886.6 1457.5 1091.5C1457.5 1296.4 1292.29 1462.5 1088.5 1462.5C884.709 1462.5 719.5 1296.4 719.5 1091.5C719.5 886.6 884.709 720.5 1088.5 720.5ZM1088.5 791.626C923.772 791.626 790.237 925.887 790.237 1091.5C790.237 1257.11 923.772 1391.37 1088.5 1391.37C1253.23 1391.37 1386.76 1257.11 1386.76 1091.5C1386.76 925.887 1253.23 791.626 1088.5 791.626Z" stroke="url(#paint7_linear_0_1)"/>
<g filter="url(#filter4_i_0_1)">
<path d="M1543 1091.5C1543 1343.62 1339.29 1548 1088 1548C836.71 1548 633 1343.62 633 1091.5C633 839.382 836.71 635 1088 635C1339.29 635 1543 839.382 1543 1091.5ZM721.337 1091.5C721.337 1294.67 885.498 1459.37 1088 1459.37C1290.5 1459.37 1454.66 1294.67 1454.66 1091.5C1454.66 888.33 1290.5 723.629 1088 723.629C885.498 723.629 721.337 888.33 721.337 1091.5Z" fill="url(#paint8_radial_0_1)"/>
</g>
<path d="M1088 635.5C1339.01 635.5 1542.5 839.657 1542.5 1091.5C1542.5 1343.34 1339.01 1547.5 1088 1547.5C836.988 1547.5 633.5 1343.34 633.5 1091.5C633.5 839.657 836.988 635.5 1088 635.5ZM1088 723.129C885.22 723.129 720.838 888.056 720.838 1091.5C720.838 1294.94 885.22 1459.87 1088 1459.87C1290.78 1459.87 1455.16 1294.94 1455.16 1091.5C1455.16 888.056 1290.78 723.129 1088 723.129Z" stroke="url(#paint9_linear_0_1)"/>
<g filter="url(#filter5_i_0_1)">
<path d="M1969.51 1095.01C1969.51 1582.95 1539.45 1653.51 1051.51 1653.51C563.563 1653.51 202.507 1582.95 202.507 1095.01C202.507 607.064 565.063 537.507 1053.01 537.507C1540.95 537.507 1969.51 607.064 1969.51 1095.01ZM374.037 1095.01C374.037 1488.22 692.797 1806.98 1086.01 1806.98C1479.22 1806.98 1797.98 1488.22 1797.98 1095.01C1797.98 701.797 1479.22 383.037 1086.01 383.037C692.797 383.037 374.037 701.797 374.037 1095.01Z" fill="url(#paint10_radial_0_1)"/>
</g>
<path d="M1590.8 1596.37C1461.92 1726.13 1283.35 1806.48 1086.01 1806.48C897.824 1806.48 726.707 1733.41 599.47 1614.11C728.434 1645.53 882.376 1654.01 1051.51 1654.01C1248.91 1654.01 1436.91 1642.46 1590.8 1596.37ZM594.615 579.11C458.416 708.88 373.537 892.031 373.537 1095.01C373.537 1298.68 459.001 1482.39 596.021 1612.23C540.466 1598.46 489.615 1580.37 444.259 1556.79C368.706 1517.52 308.404 1463.02 266.985 1387.88C225.562 1312.74 203.007 1216.93 203.007 1095.01C203.007 973.082 225.656 877.334 267.218 802.289C308.778 727.249 369.268 672.875 445.008 633.723C489.8 610.569 539.924 592.74 594.615 579.11ZM1594.76 596.229C1629.74 606.828 1662.93 619.235 1694.02 633.731C1778.02 672.891 1846.76 727.274 1894.5 802.315C1942.24 877.357 1969.01 973.096 1969.01 1095.01C1969.01 1216.92 1942.15 1312.72 1894.26 1387.86C1846.38 1462.99 1777.46 1517.5 1693.27 1556.78C1662.25 1571.26 1629.15 1583.67 1594.28 1594.28C1720.57 1465.72 1798.48 1289.46 1798.48 1095.01C1798.48 900.801 1720.77 724.746 1594.76 596.229ZM1086.01 383.537C1283.6 383.537 1462.38 464.09 1591.3 594.146C1437.79 548.368 1250.21 537.008 1053.01 537.008C882.781 537.008 727.76 545.471 598.049 577.233C725.432 457.141 897.124 383.537 1086.01 383.537Z" stroke="url(#paint11_linear_0_1)"/>
<path d="M1800 1092C1800 1486.33 1480.33 1806 1086 1806C691.669 1806 372 1486.33 372 1092C372 697.669 691.669 378 1086 378C1480.33 378 1800 697.669 1800 1092ZM541.14 1092C541.14 1392.92 785.082 1636.86 1086 1636.86C1386.92 1636.86 1630.86 1392.92 1630.86 1092C1630.86 791.082 1386.92 547.14 1086 547.14C785.082 547.14 541.14 791.082 541.14 1092Z" fill="black"/>
<circle cx="1088.5" cy="1091.5" r="296.5" fill="black"/>
<defs>
<filter id="filter0_i_0_1" x="374.037" y="211.507" width="1423.94" height="1771" filterUnits="userSpaceOnUse" color-interpolation-filters="sRGB">
<feFlood flood-opacity="0" result="BackgroundImageFix"/>
<feBlend mode="normal" in="SourceGraphic" in2="BackgroundImageFix" result="shape"/>
<feColorMatrix in="SourceAlpha" type="matrix" values="0 0 0 0 0 0 0 0 0 0 0 0 0 0 0 0 0 0 127 0" result="hardAlpha"/>
<feOffset dy="4"/>
<feGaussianBlur stdDeviation="2"/>
<feComposite in2="hardAlpha" operator="arithmetic" k2="-1" k3="1"/>
<feColorMatrix type="matrix" values="0 0 0 0 0 0 0 0 0 0 0 0 0 0 0 0 0 0 0.25 0"/>
<feBlend mode="normal" in2="shape" result="effect1_innerShadow_0_1"/>
</filter>
<filter id="filter1_i_0_1" x="0" y="0" width="2176" height="2188" filterUnits="userSpaceOnUse" color-interpolation-filters="sRGB">
<feFlood flood-opacity="0" result="BackgroundImageFix"/>
<feBlend mode="normal" in="SourceGraphic" in2="BackgroundImageFix" result="shape"/>
<feColorMatrix in="SourceAlpha" type="matrix" values="0 0 0 0 0 0 0 0 0 0 0 0 0 0 0 0 0 0 127 0" result="hardAlpha"/>
<feOffset dy="4"/>
<feGaussianBlur stdDeviation="2"/>
<feComposite in2="hardAlpha" operator="arithmetic" k2="-1" k3="1"/>
<feColorMatrix type="matrix" values="0 0 0 0 0 0 0 0 0 0 0 0 0 0 0 0 0 0 0.25 0"/>
<feBlend mode="normal" in2="shape" result="effect1_innerShadow_0_1"/>
</filter>
<filter id="filter2_i_0_1" x="526" y="527" width="1125" height="1133" filterUnits="userSpaceOnUse" color-interpolation-filters="sRGB">
<feFlood flood-opacity="0" result="BackgroundImageFix"/>
<feBlend mode="normal" in="SourceGraphic" in2="BackgroundImageFix" result="shape"/>
<feColorMatrix in="SourceAlpha" type="matrix" values="0 0 0 0 0 0 0 0 0 0 0 0 0 0 0 0 0 0 127 0" result="hardAlpha"/>
<feOffset dy="4"/>
<feGaussianBlur stdDeviation="2"/>
<feComposite in2="hardAlpha" operator="arithmetic" k2="-1" k3="1"/>
<feColorMatrix type="matrix" values="0 0 0 0 0 0 0 0 0 0 0 0 0 0 0 0 0 0 0.25 0"/>
<feBlend mode="normal" in2="shape" result="effect1_innerShadow_0_1"/>
</filter>
<filter id="filter3_i_0_1" x="719" y="720" width="739" height="747" filterUnits="userSpaceOnUse" color-interpolation-filters="sRGB">
<feFlood flood-opacity="0" result="BackgroundImageFix"/>
<feBlend mode="normal" in="SourceGraphic" in2="BackgroundImageFix" result="shape"/>
<feColorMatrix in="SourceAlpha" type="matrix" values="0 0 0 0 0 0 0 0 0 0 0 0 0 0 0 0 0 0 127 0" result="hardAlpha"/>
<feOffset dy="4"/>
<feGaussianBlur stdDeviation="2"/>
<feComposite in2="hardAlpha" operator="arithmetic" k2="-1" k3="1"/>
<feColorMatrix type="matrix" values="0 0 0 0 0 0 0 0 0 0 0 0 0 0 0 0 0 0 0.25 0"/>
<feBlend mode="normal" in2="shape" result="effect1_innerShadow_0_1"/>
</filter>
<filter id="filter4_i_0_1" x="633" y="635" width="910" height="917" filterUnits="userSpaceOnUse" color-interpolation-filters="sRGB">
<feFlood flood-opacity="0" result="BackgroundImageFix"/>
<feBlend mode="normal" in="SourceGraphic" in2="BackgroundImageFix" result="shape"/>
<feColorMatrix in="SourceAlpha" type="matrix" values="0 0 0 0 0 0 0 0 0 0 0 0 0 0 0 0 0 0 127 0" result="hardAlpha"/>
<feOffset dy="4"/>
<feGaussianBlur stdDeviation="2"/>
<feComposite in2="hardAlpha" operator="arithmetic" k2="-1" k3="1"/>
<feColorMatrix type="matrix" values="0 0 0 0 0 0 0 0 0 0 0 0 0 0 0 0 0 0 0.25 0"/>
<feBlend mode="normal" in2="shape" result="effect1_innerShadow_0_1"/>
</filter>
<filter id="filter5_i_0_1" x="202.507" y="383.037" width="1767" height="1427.94" filterUnits="userSpaceOnUse" color-interpolation-filters="sRGB">
<feFlood flood-opacity="0" result="BackgroundImageFix"/>
<feBlend mode="normal" in="SourceGraphic" in2="BackgroundImageFix" result="shape"/>
<feColorMatrix in="SourceAlpha" type="matrix" values="0 0 0 0 0 0 0 0 0 0 0 0 0 0 0 0 0 0 127 0" result="hardAlpha"/>
<feOffset dy="4"/>
<feGaussianBlur stdDeviation="2"/>
<feComposite in2="hardAlpha" operator="arithmetic" k2="-1" k3="1"/>
<feColorMatrix type="matrix" values="0 0 0 0 0 0 0 0 0 0 0 0 0 0 0 0 0 0 0.25 0"/>
<feBlend mode="normal" in2="shape" result="effect1_innerShadow_0_1"/>
</filter>
<radialGradient id="paint0_radial_0_1" cx="0" cy="0" r="1" gradientUnits="userSpaceOnUse" gradientTransform="translate(1086.01 1095.01) rotate(90) scale(883.5 883.5)">
<stop offset="0.8" stop-color="#6ED3D6" stop-opacity="0.8"/>
<stop offset="0.9" stop-color="#051023"/>
</radialGradient>
<linearGradient id="paint1_linear_0_1" x1="1086.01" y1="211.507" x2="1086.01" y2="1978.51" gradientUnits="userSpaceOnUse">
<stop/>
<stop offset="1" stop-color="#666666"/>
</linearGradient>
<radialGradient id="paint2_radial_0_1" cx="0" cy="0" r="1" gradientUnits="userSpaceOnUse" gradientTransform="translate(1088 1092) rotate(90) scale(1092 1088)">
<stop offset="0.8" stop-color="#6ED3D6" stop-opacity="0.8"/>
<stop offset="0.9" stop-color="#051023"/>
<stop offset="1" stop-color="#6ED3D6" stop-opacity="0.8"/>
</radialGradient>
<linearGradient id="paint3_linear_0_1" x1="1088" y1="0" x2="1088" y2="2184" gradientUnits="userSpaceOnUse">
<stop/>
<stop offset="1" stop-color="#666666"/>
</linearGradient>
<radialGradient id="paint4_radial_0_1" cx="0" cy="0" r="1" gradientUnits="userSpaceOnUse" gradientTransform="translate(1088.5 1091.5) rotate(90) scale(564.5 562.5)">
<stop offset="0.8" stop-color="#051023"/>
<stop offset="0.9" stop-color="#6ED3D6" stop-opacity="0.8"/>
<stop offset="1" stop-color="#051023"/>
</radialGradient>
<linearGradient id="paint5_linear_0_1" x1="1088.5" y1="527" x2="1088.5" y2="1656" gradientUnits="userSpaceOnUse">
<stop/>
<stop offset="1" stop-color="#666666"/>
</linearGradient>
<radialGradient id="paint6_radial_0_1" cx="0" cy="0" r="1" gradientUnits="userSpaceOnUse" gradientTransform="translate(1088.5 1091.5) rotate(90) scale(371.5 369.5)">
<stop offset="0.8" stop-color="#051023"/>
<stop offset="0.9" stop-color="#6ED3D6" stop-opacity="0.8"/>
<stop offset="1" stop-color="#051023"/>
</radialGradient>
<linearGradient id="paint7_linear_0_1" x1="1088.5" y1="720" x2="1088.5" y2="1463" gradientUnits="userSpaceOnUse">
<stop/>
<stop offset="1" stop-color="#666666"/>
</linearGradient>
<radialGradient id="paint8_radial_0_1" cx="0" cy="0" r="1" gradientUnits="userSpaceOnUse" gradientTransform="translate(1088 1091.5) rotate(90) scale(456.5 455)">
<stop offset="0.8" stop-color="#051023"/>
<stop offset="0.9" stop-color="#6ED3D6" stop-opacity="0.8"/>
<stop offset="1" stop-color="#051023"/>
</radialGradient>
<linearGradient id="paint9_linear_0_1" x1="1088" y1="635" x2="1088" y2="1548" gradientUnits="userSpaceOnUse">
<stop/>
<stop offset="1" stop-color="#666666"/>
</linearGradient>
<radialGradient id="paint10_radial_0_1" cx="0" cy="0" r="1" gradientUnits="userSpaceOnUse" gradientTransform="translate(1086.01 1095.01) rotate(90) scale(883.5 883.5)">
<stop offset="0.8" stop-color="#6ED3D6" stop-opacity="0.8"/>
<stop offset="0.9" stop-color="#051023"/>
</radialGradient>
<linearGradient id="paint11_linear_0_1" x1="1086.01" y1="211.507" x2="1086.01" y2="1978.51" gradientUnits="userSpaceOnUse">
<stop/>
<stop offset="1" stop-color="#666666"/>
</linearGradient>
</defs>
</svg>
